<svg width="72" height="18" viewBox="0 0 72 18" fill="none" xmlns="http://www.w3.org/2000/svg">
<path d="M0.265625 13.1475C0.265625 12.8662 0.347656 12.6318 0.511719 12.4443C0.681641 12.2568 0.933594 12.1631 1.26758 12.1631C1.60156 12.1631 1.85352 12.2568 2.02344 12.4443C2.19922 12.6318 2.28711 12.8662 2.28711 13.1475C2.28711 13.417 2.19922 13.6426 2.02344 13.8242C1.85352 14.0059 1.60156 14.0967 1.26758 14.0967C0.933594 14.0967 0.681641 14.0059 0.511719 13.8242C0.347656 13.6426 0.265625 13.417 0.265625 13.1475ZM6.51465 4.49023L6.56738 5.68555C7.29395 4.77148 8.24316 4.31445 9.41504 4.31445C11.4248 4.31445 12.4385 5.44824 12.4561 7.71582V14H10.8301V7.70703C10.8242 7.02148 10.666 6.51465 10.3555 6.18652C10.0508 5.8584 9.57324 5.69434 8.92285 5.69434C8.39551 5.69434 7.93262 5.83496 7.53418 6.11621C7.13574 6.39746 6.8252 6.7666 6.60254 7.22363V14H4.97656V4.49023H6.51465ZM20.7793 14C20.6855 13.8125 20.6094 13.4785 20.5508 12.998C19.7949 13.7832 18.8926 14.1758 17.8438 14.1758C16.9062 14.1758 16.1357 13.9121 15.5322 13.3848C14.9346 12.8516 14.6357 12.1777 14.6357 11.3633C14.6357 10.373 15.0107 9.60547 15.7607 9.06055C16.5166 8.50977 17.5771 8.23438 18.9424 8.23438H20.5244V7.4873C20.5244 6.91895 20.3545 6.46777 20.0146 6.13379C19.6748 5.79395 19.1738 5.62402 18.5117 5.62402C17.9316 5.62402 17.4453 5.77051 17.0527 6.06348C16.6602 6.35645 16.4639 6.71094 16.4639 7.12695H14.8291C14.8291 6.65234 14.9961 6.19531 15.3301 5.75586C15.6699 5.31055 16.127 4.95898 16.7012 4.70117C17.2812 4.44336 17.917 4.31445 18.6084 4.31445C19.7041 4.31445 20.5625 4.58984 21.1836 5.14062C21.8047 5.68555 22.127 6.43848 22.1504 7.39941V11.7764C22.1504 12.6494 22.2617 13.3438 22.4844 13.8594V14H20.7793ZM18.0811 12.7607C18.5908 12.7607 19.0742 12.6289 19.5312 12.3652C19.9883 12.1016 20.3193 11.7588 20.5244 11.3369V9.38574H19.25C17.2578 9.38574 16.2617 9.96875 16.2617 11.1348C16.2617 11.6445 16.4316 12.043 16.7715 12.3301C17.1113 12.6172 17.5479 12.7607 18.0811 12.7607ZM27.6963 11.7939L30.0518 4.49023H31.7129L28.3027 14H27.0635L23.6182 4.49023H25.2793L27.6963 11.7939ZM36.6611 9.22754H32.3721V7.90039H36.6611V9.22754ZM40.0186 14H38.3926V0.5H40.0186V14ZM42.1982 9.15723C42.1982 8.22559 42.3799 7.3877 42.7432 6.64355C43.1123 5.89941 43.6221 5.3252 44.2725 4.9209C44.9287 4.5166 45.6758 4.31445 46.5137 4.31445C47.8086 4.31445 48.8545 4.7627 49.6514 5.65918C50.4541 6.55566 50.8555 7.74805 50.8555 9.23633V9.35059C50.8555 10.2764 50.6768 11.1084 50.3193 11.8467C49.9678 12.5791 49.4609 13.1504 48.7988 13.5605C48.1426 13.9707 47.3867 14.1758 46.5312 14.1758C45.2422 14.1758 44.1963 13.7275 43.3936 12.8311C42.5967 11.9346 42.1982 10.748 42.1982 9.27148V9.15723ZM43.833 9.35059C43.833 10.4053 44.0762 11.252 44.5625 11.8906C45.0547 12.5293 45.7109 12.8486 46.5312 12.8486C47.3574 12.8486 48.0137 12.5264 48.5 11.8818C48.9863 11.2314 49.2295 10.3232 49.2295 9.15723C49.2295 8.11426 48.9805 7.27051 48.4824 6.62598C47.9902 5.97559 47.334 5.65039 46.5137 5.65039C45.7109 5.65039 45.0635 5.96973 44.5713 6.6084C44.0791 7.24707 43.833 8.16113 43.833 9.35059ZM52.5078 9.16602C52.5078 7.68359 52.8506 6.50586 53.5361 5.63281C54.2217 4.75391 55.1299 4.31445 56.2607 4.31445C57.4209 4.31445 58.3262 4.72461 58.9766 5.54492L59.0557 4.49023H60.541V13.7715C60.541 15.002 60.1748 15.9717 59.4424 16.6807C58.7158 17.3896 57.7373 17.7441 56.5068 17.7441C55.8213 17.7441 55.1504 17.5977 54.4941 17.3047C53.8379 17.0117 53.3369 16.6104 52.9912 16.1006L53.835 15.125C54.5322 15.9863 55.3848 16.417 56.3926 16.417C57.1836 16.417 57.7988 16.1943 58.2383 15.749C58.6836 15.3037 58.9062 14.6768 58.9062 13.8682V13.0508C58.2559 13.8008 57.3682 14.1758 56.2432 14.1758C55.1299 14.1758 54.2275 13.7275 53.5361 12.8311C52.8506 11.9346 52.5078 10.7129 52.5078 9.16602ZM54.1426 9.35059C54.1426 10.4229 54.3623 11.2666 54.8018 11.8818C55.2412 12.4912 55.8564 12.7959 56.6475 12.7959C57.6729 12.7959 58.4258 12.3301 58.9062 11.3984V7.05664C58.4082 6.14844 57.6611 5.69434 56.665 5.69434C55.874 5.69434 55.2559 6.00195 54.8105 6.61719C54.3652 7.23242 54.1426 8.14355 54.1426 9.35059ZM62.5713 9.15723C62.5713 8.22559 62.7529 7.3877 63.1162 6.64355C63.4854 5.89941 63.9951 5.3252 64.6455 4.9209C65.3018 4.5166 66.0488 4.31445 66.8867 4.31445C68.1816 4.31445 69.2275 4.7627 70.0244 5.65918C70.8271 6.55566 71.2285 7.74805 71.2285 9.23633V9.35059C71.2285 10.2764 71.0498 11.1084 70.6924 11.8467C70.3408 12.5791 69.834 13.1504 69.1719 13.5605C68.5156 13.9707 67.7598 14.1758 66.9043 14.1758C65.6152 14.1758 64.5693 13.7275 63.7666 12.8311C62.9697 11.9346 62.5713 10.748 62.5713 9.27148V9.15723ZM64.2061 9.35059C64.2061 10.4053 64.4492 11.252 64.9355 11.8906C65.4277 12.5293 66.084 12.8486 66.9043 12.8486C67.7305 12.8486 68.3867 12.5264 68.873 11.8818C69.3594 11.2314 69.6025 10.3232 69.6025 9.15723C69.6025 8.11426 69.3535 7.27051 68.8555 6.62598C68.3633 5.97559 67.707 5.65039 66.8867 5.65039C66.084 5.65039 65.4365 5.96973 64.9443 6.6084C64.4521 7.24707 64.2061 8.16113 64.2061 9.35059Z" fill="black"/>
</svg>
